<svg xmlns="http://www.w3.org/2000/svg" viewBox="0 0 24 24" fill="none" stroke="currentColor" stroke-width="2" stroke-linecap="round" stroke-linejoin="round" class="feather feather-users">
  <path d="M12 2a5 5 0 0 1 5 5c0 2.21-1.94 4-5 4s-5-1.79-5-4a5 5 0 0 1 5-5zm0 0a5 5 0 0 1 5 5c0 2.21-1.94 4-5 4s-5-1.79-5-4a5 5 0 0 1 5-5zm0 0a5 5 0 0 1 5 5c0 2.21-1.94 4-5 4s-5-1.79-5-4a5 5 0 0 1 5-5zm0 0a5 5 0 0 1 5 5c0 2.21-1.94 4-5 4s-5-1.79-5-4a5 5 0 0 1 5-5z"></path>
  <path d="M15 21v-2a4 4 0 0 0-4-4H9a4 4 0 0 0-4 4v2"></path>
</svg>

