<?xml version="1.0" standalone="no"?>
<!DOCTYPE svg PUBLIC "-//W3C//DTD SVG 20010904//EN"
 "http://www.w3.org/TR/2001/REC-SVG-20010904/DTD/svg10.dtd">
<svg version="1.0" xmlns="http://www.w3.org/2000/svg"
 width="1245.000000pt" height="569.000000pt" viewBox="0 0 1245.000000 569.000000"
 preserveAspectRatio="xMidYMid meet">

<g transform="translate(0.000000,569.000000) scale(0.100000,-0.100000)"
fill="#000000" stroke="">
<path fill="#6A0DAD" d="M1440 4603 c-8 -3 -17 -10 -21 -14 -3 -5 -36 -11 -73 -14 -37 -3 -77
-12 -89 -20 -12 -8 -32 -15 -44 -15 -13 0 -32 -6 -43 -12 -15 -9 -25 -10 -37
-2 -12 8 -25 7 -46 -4 l-28 -14 1 -102 c0 -55 2 -150 3 -211 3 -176 1 -372 -8
-631 -9 -272 -8 -275 62 -301 42 -16 142 -40 214 -52 41 -6 57 -18 143 -103
53 -53 96 -104 96 -114 1 -11 14 -30 30 -44 23 -19 30 -32 30 -61 0 -20 7 -42
15 -49 8 -7 15 -25 15 -39 0 -15 7 -36 15 -47 8 -10 15 -35 15 -54 0 -19 7
-48 15 -64 8 -15 15 -47 15 -71 0 -25 6 -48 14 -55 12 -10 16 -67 18 -335 2
-243 6 -327 16 -337 17 -17 17 -165 0 -171 -9 -2 -13 -31 -13 -97 0 -66 4 -95
13 -97 6 -3 12 -19 12 -37 0 -19 9 -45 20 -59 11 -14 20 -32 20 -40 0 -20 55
-27 174 -21 102 5 145 21 146 55 0 8 7 24 15 35 8 10 15 26 15 35 0 9 6 22 14
28 8 7 17 35 21 64 4 29 12 58 19 66 6 8 13 65 15 135 2 82 8 127 17 141 11
15 14 65 14 221 0 219 0 218 58 230 l32 6 0 82 c0 44 -4 86 -8 92 -4 6 -23 15
-42 19 -48 10 -70 32 -70 71 0 39 29 64 74 64 20 0 38 9 53 27 20 23 23 37 23
120 0 93 0 93 -36 133 -19 21 -44 42 -55 45 -23 8 -36 52 -20 68 6 6 11 19 11
29 0 10 28 47 63 82 82 83 186 136 268 136 38 0 63 5 73 15 9 10 34 15 68 15
29 0 66 7 82 15 15 8 49 15 75 15 25 0 57 6 72 13 14 8 49 17 79 20 29 4 56
11 59 16 3 4 49 10 102 13 54 2 103 9 110 15 8 6 65 13 127 15 71 2 116 8 120
15 5 8 75 13 229 15 122 2 224 5 227 8 3 3 6 45 8 92 2 70 0 89 -14 105 -15
17 -18 40 -18 159 0 108 3 145 15 160 21 27 21 180 0 200 -20 20 -19 53 2 76
15 17 15 18 -8 18 -14 0 -31 6 -37 13 -10 9 -82 13 -265 17 -175 3 -259 9
-274 18 -12 6 -53 12 -91 12 -50 0 -73 4 -82 15 -9 11 -33 15 -90 15 -57 0
-81 4 -90 15 -8 9 -30 15 -59 15 -25 1 -57 7 -71 15 -14 8 -48 14 -76 15 -28
0 -59 6 -70 15 -10 8 -40 15 -65 15 -25 0 -54 7 -65 15 -11 8 -42 14 -74 15
-35 0 -64 6 -80 17 -17 12 -43 16 -89 16 -44 -1 -74 4 -90 14 -16 11 -60 17
-135 21 -70 3 -118 10 -131 18 -15 11 -83 14 -330 13 -170 0 -317 -3 -325 -6z
m378 -155 c9 -9 68 -14 202 -17 146 -2 192 -6 201 -17 13 -16 75 -19 84 -4 4
7 12 7 25 0 10 -5 36 -10 57 -10 22 0 48 -7 59 -15 10 -8 35 -15 55 -15 20 0
42 -6 48 -14 6 -7 39 -16 73 -20 34 -3 67 -11 72 -16 6 -6 35 -10 66 -10 31 0
61 -5 68 -12 18 -18 79 -36 94 -27 8 5 23 1 38 -9 20 -13 45 -16 124 -14 82 2
103 -1 119 -15 12 -11 33 -17 60 -16 26 0 49 -5 61 -16 16 -14 45 -16 231 -13
181 2 215 0 228 -13 9 -8 24 -15 34 -15 38 -1 53 -25 57 -89 2 -38 -1 -64 -8
-70 -16 -14 -526 25 -566 43 -8 3 -64 10 -125 16 -189 16 -288 31 -302 46 -8
8 -34 14 -62 14 -26 0 -52 5 -58 11 -6 6 -39 13 -74 16 -35 3 -69 10 -75 15
-7 5 -36 12 -65 15 -29 3 -64 12 -78 20 -15 7 -56 13 -92 13 -47 0 -70 4 -79
15 -9 11 -33 15 -89 15 -48 0 -82 5 -89 13 -10 9 -87 12 -317 12 -230 0 -307
-3 -316 -12 -8 -8 -40 -13 -78 -13 -39 0 -78 -6 -95 -15 -37 -20 -45 -19 -67
7 -39 44 -17 168 30 168 9 0 26 7 37 15 14 10 48 14 129 15 74 0 118 5 135 14
33 19 231 21 248 4z"/>

<path d="M919 4427 c-14 -12 -37 -40 -51 -62 -14 -22 -40 -55 -57 -74 l-31
-35 0 -347 c0 -334 5 -399 31 -399 4 0 10 -12 14 -27 6 -26 115 -143 133 -143
6 0 11 6 13 13 2 6 3 256 1 555 -2 419 -5 542 -15 542 -6 0 -24 -10 -38 -23z"/>
<path d="M4720 4287 c-14 -6 -52 -32 -85 -57 -81 -62 -125 -80 -192 -80 -50 0
-61 4 -88 30 -32 31 -75 43 -82 22 -6 -17 53 -71 102 -93 22 -10 58 -18 80
-18 75 0 207 75 219 124 5 20 14 23 74 29 74 7 97 2 155 -38 l37 -25 0 37 c0
35 -3 39 -47 60 -52 24 -130 29 -173 9z"/>
<path d="M5158 4044 c-34 -10 -41 -57 -35 -227 4 -89 12 -182 18 -207 6 -25
10 -57 9 -72 -4 -75 -2 -232 5 -306 7 -79 9 -84 44 -112 43 -36 95 -41 111
-10 6 11 14 87 18 168 l7 147 26 3 c48 6 54 -16 41 -144 -16 -162 -1 -191 90
-181 28 4 56 11 61 16 5 5 12 31 14 58 3 26 10 54 16 61 6 7 9 51 8 99 -2 93
14 373 29 520 6 50 7 105 4 122 -8 41 -47 61 -114 61 -44 0 -56 -4 -82 -30
l-30 -30 7 -138 c6 -121 5 -140 -9 -155 -12 -11 -23 -14 -39 -8 -22 8 -22 11
-19 164 3 150 3 156 -19 176 -13 12 -34 21 -48 21 -14 0 -42 2 -61 4 -19 3
-42 2 -52 0z"/>
<path d="M6343 4043 c-95 -4 -109 -16 -93 -74 7 -24 7 -48 -1 -80 -16 -60 -6
-99 24 -99 45 0 46 -7 52 -203 3 -103 9 -197 14 -209 11 -31 -6 -96 -34 -130
-33 -40 -34 -97 -1 -135 23 -27 25 -27 70 -15 26 6 68 12 94 12 56 0 67 6 81
43 17 44 13 81 -10 101 -21 18 -22 23 -14 155 9 163 10 205 4 294 -4 66 -3 68
29 98 l34 32 -4 98 c-1 53 -7 101 -11 106 -9 9 -113 12 -234 6z"/>
<path d="M6803 4034 c-17 -9 -50 -33 -72 -53 l-41 -38 -1 -84 c0 -46 -6 -115
-13 -154 -12 -64 -12 -73 5 -101 23 -38 39 -143 44 -289 6 -155 11 -193 25
-210 13 -16 47 -20 67 -7 16 10 63 138 63 172 0 15 6 33 14 39 18 15 43 -17
52 -67 5 -28 14 -37 43 -49 24 -9 44 -28 59 -54 25 -43 58 -52 87 -22 20 19
15 76 -9 102 -9 9 -21 41 -27 71 -6 30 -18 68 -26 84 -15 29 -15 30 26 67 65
60 83 110 88 259 6 158 -4 201 -60 256 -39 38 -47 41 -113 47 -40 4 -91 16
-115 27 -53 24 -56 24 -96 4z m175 -274 c28 -26 29 -73 3 -132 -10 -24 -22
-63 -26 -85 -7 -44 -30 -73 -44 -57 -5 5 -12 66 -16 135 -6 110 -5 127 10 142
22 23 47 21 73 -3z"/>
<path d="M5838 4023 c-32 -36 -70 -126 -78 -187 -4 -33 -13 -74 -19 -89 -6
-16 -11 -52 -11 -80 -1 -29 -7 -81 -15 -117 -21 -97 -19 -192 5 -237 14 -27
20 -57 20 -103 0 -71 18 -110 50 -110 21 0 80 99 106 179 13 42 21 51 46 56
43 10 76 -25 87 -93 4 -28 14 -59 22 -68 7 -9 18 -26 24 -38 15 -31 50 -32 70
-3 21 32 40 183 40 322 0 105 -16 207 -39 250 -6 11 -11 73 -11 142 0 155 -6
164 -123 175 -42 4 -95 10 -117 13 -32 5 -44 3 -57 -12z m143 -382 c20 -93 21
-106 8 -130 -21 -37 -69 -36 -87 1 -11 24 -10 42 3 115 19 101 32 140 44 127
5 -5 19 -56 32 -113z"/>
<path d="M4770 4010 c-8 -5 -29 -10 -45 -10 -20 0 -62 -21 -125 -62 -133 -88
-159 -87 -286 7 -9 6 -18 5 -26 -3 -15 -15 -2 -40 28 -56 10 -6 38 -23 61 -38
45 -31 94 -36 113 -13 7 8 29 15 50 15 21 0 43 7 50 15 7 8 17 15 22 15 5 0
33 20 61 45 l52 45 80 0 c56 0 87 -5 101 -15 27 -20 36 -18 32 7 -6 43 -124
76 -168 48z"/>
<path d="M4690 3720 c-25 -16 -48 -30 -52 -30 -4 0 -22 -13 -40 -30 -18 -16
-38 -30 -44 -30 -6 0 -17 -7 -24 -15 -8 -10 -31 -15 -68 -15 -48 0 -60 4 -97
34 -30 25 -48 33 -64 29 -29 -7 -27 -13 17 -56 l38 -37 100 0 c108 0 117 4
219 86 67 54 157 58 230 9 l36 -25 -3 31 c-2 18 -10 35 -18 39 -43 21 -90 34
-135 37 -43 3 -57 -1 -95 -27z"/>
<path d="M7165 2851 c-55 -3 -106 -10 -113 -14 -9 -7 -11 -27 -6 -81 4 -48 2
-86 -6 -110 -19 -57 -8 -82 40 -90 30 -5 41 -12 45 -29 3 -12 7 -110 9 -217 3
-107 8 -207 11 -222 13 -50 -4 -117 -36 -145 -26 -23 -29 -33 -29 -82 0 -98
38 -123 136 -93 34 11 76 17 99 15 52 -6 74 17 82 87 6 48 4 53 -22 74 l-28
22 13 165 c15 192 15 197 5 315 -8 97 -10 91 48 135 26 20 27 24 27 108 0 97
-12 146 -40 161 -20 10 -68 11 -235 1z"/>
<path d="M5374 2824 c-28 -19 -46 -25 -70 -21 -58 10 -71 0 -98 -72 -41 -110
-56 -172 -56 -233 0 -37 -7 -72 -19 -96 -10 -20 -21 -66 -25 -102 -4 -36 -14
-103 -22 -149 -8 -46 -14 -113 -14 -148 0 -73 18 -199 31 -225 12 -23 50 -23
80 0 13 10 32 21 42 25 22 8 37 47 37 98 0 63 23 98 71 105 22 4 45 14 52 23
38 54 73 32 82 -51 4 -35 13 -73 21 -85 8 -12 14 -36 14 -52 0 -48 18 -75 58
-88 34 -11 39 -10 64 15 34 33 35 52 24 322 -5 124 -14 207 -22 229 -8 18 -14
54 -14 80 0 25 -5 66 -11 91 -6 25 -12 89 -14 142 -4 112 -26 167 -78 198 -44
27 -87 25 -133 -6z m25 -320 c1 -1 5 -58 8 -126 6 -139 4 -144 -61 -150 -58
-5 -64 12 -42 119 10 48 21 102 23 118 7 42 22 57 47 49 12 -4 23 -8 25 -10z"/>
<path d="M5849 2817 c-24 -18 -51 -36 -60 -39 -21 -8 -39 -80 -39 -155 0 -53
-7 -108 -25 -219 -6 -35 -4 -44 16 -62 19 -19 23 -36 31 -139 5 -65 14 -128
20 -140 6 -12 8 -36 4 -54 -9 -44 4 -216 18 -234 6 -8 25 -18 42 -21 38 -7 74
22 74 59 0 12 9 39 20 60 12 23 20 56 20 87 0 84 49 76 65 -10 9 -50 31 -80
60 -80 24 0 50 -29 73 -82 13 -31 53 -38 85 -14 27 21 23 91 -8 128 -16 19
-25 42 -25 64 0 19 -11 62 -25 96 -21 53 -23 63 -11 70 102 57 136 149 136
368 0 82 -4 141 -10 145 -5 3 -10 14 -10 24 0 26 -67 107 -98 119 -15 6 -60
13 -101 16 -48 4 -86 14 -106 26 -49 30 -94 26 -146 -13z m231 -292 c22 -26
17 -124 -8 -178 -13 -26 -20 -52 -16 -58 10 -18 -27 -90 -45 -87 -13 3 -17 29
-24 156 -7 116 -6 156 3 167 16 20 74 19 90 0z"/>
<path d="M6670 2829 c-45 -15 -74 -18 -160 -14 -58 3 -111 1 -117 -3 -7 -4
-18 -43 -25 -85 -9 -63 -9 -85 1 -114 8 -20 17 -71 22 -112 6 -53 14 -80 26
-88 29 -22 53 -15 74 21 24 41 43 50 64 30 21 -22 21 -236 -1 -344 l-17 -81
28 -29 c22 -23 29 -42 35 -98 6 -58 13 -77 40 -111 19 -23 38 -41 44 -41 7 0
23 12 37 28 15 15 38 38 53 51 25 22 26 29 26 110 0 47 1 194 3 326 2 219 4
240 19 243 12 2 22 -6 30 -25 32 -75 78 -105 105 -70 6 6 13 94 17 195 l6 182
-24 25 c-29 29 -41 30 -91 9 -34 -14 -41 -14 -83 0 -25 9 -48 16 -51 15 -3 -1
-31 -10 -61 -20z"/>
<path d="M8380 2829 c-45 -15 -74 -18 -161 -13 -80 3 -108 2 -116 -8 -5 -7
-16 -45 -23 -84 -11 -63 -11 -77 4 -120 9 -27 19 -78 23 -114 8 -95 53 -121
95 -55 28 42 43 49 63 29 20 -21 21 -251 0 -348 -13 -62 -13 -72 0 -90 8 -12
22 -30 30 -42 8 -11 18 -49 22 -85 5 -50 13 -72 36 -101 17 -21 35 -38 41 -38
6 0 35 23 64 50 l53 49 0 88 c0 48 0 187 -1 307 -1 120 1 230 5 243 9 37 35
24 64 -32 20 -38 32 -51 52 -53 47 -6 53 14 56 206 1 98 0 184 -3 193 -2 9
-18 22 -34 29 -24 10 -37 9 -73 -5 -40 -15 -47 -15 -82 -1 -45 19 -45 19 -115
-5z"/>
<path d="M8852 2804 c-34 -26 -65 -56 -67 -68 -3 -12 -7 -57 -9 -101 -2 -44
-9 -123 -17 -176 -12 -93 -12 -96 11 -126 20 -27 23 -47 28 -147 3 -80 9 -119
18 -127 17 -14 18 -45 3 -55 -7 -4 -9 -24 -5 -58 4 -28 9 -77 13 -109 6 -66
33 -94 78 -83 26 7 55 51 55 84 0 10 7 27 15 38 8 11 15 41 15 70 0 34 5 56
15 64 22 18 33 4 59 -72 19 -56 24 -64 51 -68 23 -4 37 -17 60 -57 31 -55 54
-65 96 -43 27 15 27 98 -1 133 -11 14 -20 35 -20 47 0 12 -11 55 -25 95 l-26
73 54 54 c69 69 86 127 91 305 4 161 -7 203 -72 271 l-47 49 -81 6 c-54 3 -94
12 -122 26 -64 33 -98 28 -170 -25z m252 -280 c24 -23 21 -115 -5 -166 -11
-22 -22 -60 -23 -84 -3 -44 -19 -74 -41 -74 -16 0 -26 25 -19 44 3 7 0 68 -6
135 -12 143 -7 161 45 161 18 0 41 -7 49 -16z"/>
<path d="M7671 2810 c-51 -37 -130 -145 -153 -208 -24 -68 -22 -140 8 -245 33
-118 55 -154 99 -163 29 -5 37 -12 51 -53 23 -62 32 -71 64 -71 24 0 29 -5 34
-35 22 -113 -77 -157 -132 -59 -25 45 -100 -48 -87 -107 7 -33 83 -104 121
-113 17 -5 35 -1 51 9 21 14 31 15 72 4 56 -14 78 -8 90 23 5 13 25 38 45 56
47 43 66 90 66 167 0 88 -19 124 -118 226 -133 137 -141 163 -67 209 44 27 58
22 85 -30 37 -73 100 -45 100 46 0 32 7 61 21 83 19 31 20 39 9 75 -20 67 -90
187 -117 199 -18 8 -37 7 -73 -2 -41 -11 -53 -10 -79 3 -40 21 -41 21 -90 -14z"/>
<path d="M9347 2815 c-10 -9 -17 -21 -17 -27 0 -26 81 -175 109 -202 25 -24
31 -38 31 -73 0 -53 20 -94 53 -112 52 -28 68 -124 45 -261 -12 -70 -12 -72
15 -120 21 -37 27 -61 27 -109 0 -52 5 -67 32 -106 22 -30 39 -45 54 -45 24 0
28 9 40 75 4 22 18 63 32 90 25 47 26 61 30 215 2 93 8 178 15 195 17 44 69
128 90 143 25 19 47 66 47 100 0 19 14 49 40 83 32 43 40 62 40 96 0 56 -30
79 -79 62 -23 -8 -47 -8 -84 -1 -70 14 -91 0 -106 -68 -6 -28 -20 -71 -31 -95
-11 -24 -20 -51 -20 -59 0 -8 -4 -26 -10 -40 -13 -34 -40 -24 -40 15 0 16 -6
46 -14 66 -8 21 -17 56 -21 78 -4 21 -13 51 -21 66 -12 24 -20 27 -86 33 -40
3 -91 8 -114 12 -31 4 -45 2 -57 -11z"/>

</g>
</svg>
