<svg version="1.1" id="Layer_1" xmlns="http://www.w3.org/2000/svg" xmlns:xlink="http://www.w3.org/1999/xlink" x="0px" y="0px"
	 width="10%" viewBox="0 0 464 464" enable-background="new 0 0 464 464" xml:space="preserve">
<path fill="#000000" opacity="1.000000" stroke="" 
	d="
M349.233276,212.000031 
	C349.234283,231.828110 349.253174,251.156204 349.228149,270.484253 
	C349.214142,281.309448 344.184265,286.386017 333.352539,286.392822 
	C283.199524,286.424347 233.046524,286.428314 182.893509,286.409943 
	C172.000748,286.405945 166.932404,281.394348 166.923920,270.555267 
	C166.888184,224.901062 166.884079,179.246796 166.917542,133.592606 
	C166.925568,122.633430 171.927917,117.692734 182.763519,117.650429 
	C184.429703,117.643929 186.098526,117.575096 187.761475,117.645355 
	C190.502884,117.761192 191.473938,116.493935 191.709106,113.778000 
	C192.425568,105.503540 196.241379,102.240799 204.782013,102.168961 
	C213.560486,102.095131 218.701508,106.273979 218.328629,113.805969 
	C218.187531,116.656090 219.652069,117.637978 222.290039,117.620461 
	C228.288010,117.580605 234.289398,117.512848 240.283646,117.672569 
	C243.518692,117.758751 244.612778,116.482635 244.742126,113.281754 
	C244.968658,107.676620 247.873962,103.316681 252.339783,102.928299 
	C258.265045,102.413002 264.830688,100.563148 269.405731,106.701103 
	C270.627014,108.339584 271.536743,110.184616 271.285461,112.259026 
	C270.715851,116.960869 273.166931,117.871986 277.224060,117.683464 
	C282.544220,117.436241 287.887299,117.536453 293.215881,117.670845 
	C296.363892,117.750244 297.618378,116.591232 297.751434,113.324730 
	C297.982910,107.642586 300.813721,103.409958 305.334290,102.968094 
	C311.286804,102.386292 317.811829,100.743851 322.437683,106.740013 
	C323.926666,108.670067 324.531799,110.896400 324.326202,113.308716 
	C324.042816,116.633934 325.711456,117.793991 328.811493,117.643570 
	C330.805695,117.546791 332.809692,117.625198 334.808716,117.658592 
	C343.920837,117.810776 349.182892,123.118904 349.212921,132.522385 
	C349.283722,154.682785 349.234070,176.843567 349.233185,199.004196 
	C349.233032,203.169464 349.232941,207.334747 349.233276,212.000031 
M212.500046,169.281540 
	C202.169830,169.282913 191.833710,169.489471 181.512070,169.192627 
	C176.868713,169.059097 175.164413,170.224396 175.200287,175.239227 
	C175.425415,206.728119 175.313599,238.219406 175.322327,269.709900 
	C175.324432,277.272888 176.679916,278.648376 184.403610,278.651459 
	C233.722061,278.671265 283.040527,278.673706 332.358978,278.656403 
	C339.360962,278.653961 340.798248,277.176208 340.802643,270.105347 
	C340.822296,238.614853 340.708099,207.123581 340.928741,175.634613 
	C340.964172,170.577042 339.538300,169.129791 334.463013,169.155151 
	C294.142822,169.356598 253.821228,169.275650 212.500046,169.281540 
M247.500000,160.866653 
	C276.638275,160.868439 305.776794,160.809937 334.914490,160.941147 
	C338.983948,160.959457 341.088165,160.193741 340.890411,155.500214 
	C340.568268,147.854523 340.663422,140.182053 340.849915,132.527420 
	C340.971161,127.550415 338.449005,125.593155 333.905243,125.433968 
	C332.075775,125.369881 330.235992,125.508568 328.412567,125.384003 
	C325.397400,125.178024 324.122498,126.493828 324.321594,129.490967 
	C324.512238,132.360413 324.186584,135.122345 322.339386,137.538162 
	C319.126007,141.740662 311.849243,143.408463 305.327484,141.363129 
	C300.501160,139.849503 297.799927,136.278351 297.774261,130.345291 
	C297.758423,126.688400 296.532593,125.240028 292.840118,125.361786 
	C287.185272,125.548225 281.515289,125.533424 275.859863,125.351357 
	C272.316223,125.237282 271.029907,126.742439 271.326660,130.119553 
	C271.550293,132.664459 271.075195,135.067093 269.523163,137.214371 
	C266.330383,141.631577 259.595917,143.360825 252.667175,141.474121 
	C247.550903,140.080948 244.789810,136.517471 244.764191,130.255554 
	C244.748947,126.530617 243.396393,125.225601 239.763336,125.351646 
	C234.275391,125.542053 228.770248,125.544327 223.283112,125.339684 
	C219.731018,125.207199 217.915649,126.244675 218.304077,130.109634 
	C218.722198,134.270248 217.142242,137.809982 213.639282,139.971741 
	C208.615524,143.072006 203.052780,142.952820 197.794693,140.749603 
	C193.145798,138.801682 191.338989,134.697556 191.681931,129.743805 
	C191.910110,126.447960 190.389679,125.191803 187.245346,125.392265 
	C185.753128,125.487396 184.248383,125.364258 182.751068,125.404984 
	C177.018463,125.560890 175.351318,127.214050 175.319931,132.913010 
	C175.282318,139.739456 175.318115,146.566330 175.328674,153.393021 
	C175.340210,160.855392 175.343475,160.862244 182.562103,160.863632 
	C203.874741,160.867706 225.187363,160.865829 247.500000,160.866653 
M305.987152,121.518639 
	C305.991913,124.181328 306.033325,126.844589 305.992584,129.506577 
	C305.935822,133.216614 308.205811,133.779800 311.259003,133.744507 
	C314.315887,133.709183 316.573944,132.999252 316.589203,129.405289 
	C316.609009,124.745514 316.606140,120.085587 316.595734,115.425766 
	C316.587158,111.585785 314.546112,110.303154 310.849487,110.310417 
	C307.042633,110.317894 305.837280,112.133217 305.993958,115.561226 
	C306.069824,117.221718 305.994141,118.889130 305.987152,121.518639 
M206.189087,133.681381 
	C208.493637,133.742706 210.353897,132.796204 210.418533,130.416794 
	C210.567505,124.933144 210.572525,119.427124 210.233185,113.955162 
	C210.008545,110.332634 207.054398,110.339157 204.233780,110.358429 
	C201.280914,110.378616 199.962555,111.792740 199.955246,114.634666 
	C199.943237,119.299507 200.042221,123.967766 199.893448,128.628174 
	C199.767685,132.568253 201.569931,134.126846 206.189087,133.681381 
M253.379196,112.322884 
	C252.487610,117.773933 253.148132,123.263580 252.963028,128.731674 
	C252.843231,132.271011 254.320541,133.784134 258.006866,133.773056 
	C261.786285,133.761688 263.610107,132.312317 263.579071,128.528503 
	C263.547699,124.706787 263.639496,120.882721 263.541168,117.063194 
	C263.364777,110.211960 260.561249,108.667145 253.379196,112.322884 
z"/>
<path fill="#000000" opacity="1.000000" stroke="none" 
	d="
M144.577377,260.461731 
	C152.437378,278.434418 163.060974,293.959930 177.393112,306.929718 
	C180.523880,309.762878 183.170685,310.409302 186.515442,307.705261 
	C197.573410,298.765442 208.049683,299.324402 218.703506,308.884460 
	C222.966843,312.710052 228.447571,315.227295 233.507019,318.106598 
	C242.038788,322.962067 244.795532,329.058167 242.337860,338.494415 
	C240.703079,344.771179 239.209717,351.099396 237.227768,357.267944 
	C233.634369,368.452026 227.262100,371.791138 215.606659,368.468811 
	C190.971298,361.446716 169.434311,348.797791 150.618088,331.556061 
	C121.138199,304.543030 104.702477,270.795715 99.897346,231.303101 
	C97.648911,212.823502 98.762871,194.434723 102.909729,176.266693 
	C103.425476,174.007111 104.157784,171.760742 105.086433,169.638062 
	C108.545319,161.731735 113.994705,159.006409 123.506409,161.039078 
	C130.816544,162.601303 138.050797,164.624344 145.188126,166.859634 
	C152.271301,169.077942 156.095322,174.921188 156.153976,183.000763 
	C156.215561,191.486984 156.060242,199.958038 157.183350,208.418182 
	C158.299362,216.824768 154.619385,222.715622 147.161484,226.750381 
	C135.957108,232.811966 135.940048,232.993515 139.421814,245.483780 
	C140.803543,250.440491 142.739731,255.242645 144.577377,260.461731 
M230.212067,352.735443 
	C231.693649,347.278595 233.103745,341.801025 234.678024,336.371033 
	C236.099533,331.467987 234.592972,327.938965 230.139435,325.530334 
	C222.363235,321.324615 214.911926,316.599182 207.846909,311.282776 
	C204.355865,308.655792 200.832077,308.599762 197.159698,310.806335 
	C193.733826,312.864838 190.126312,314.671387 186.910355,317.016235 
	C182.799911,320.013184 179.495331,319.336212 175.763443,316.231201 
	C160.655014,303.660828 149.102859,288.359802 140.470810,270.811035 
	C135.083008,259.857758 131.265991,248.348099 129.081909,236.310379 
	C127.807976,229.288986 128.301605,228.085373 134.395355,224.644470 
	C137.730576,222.761215 141.057343,220.862137 144.415955,219.021362 
	C148.041031,217.034576 149.577057,214.010559 149.155075,209.925308 
	C148.214020,200.814728 147.365250,191.695770 147.794830,182.520279 
	C147.995819,178.227402 146.031799,175.459183 141.992111,174.337112 
	C134.943665,172.379303 127.850616,170.580780 120.767097,168.751007 
	C116.188164,167.568207 113.380753,169.508743 112.024513,173.867905 
	C111.481117,175.614517 110.809196,177.339554 110.462440,179.126175 
	C103.807846,213.413773 106.357796,246.807037 121.477448,278.569275 
	C140.855499,319.277283 172.993271,345.683105 215.336273,360.072144 
	C225.013657,363.360718 227.313828,362.090363 230.212067,352.735443 
z"/>
<path fill="#000000" opacity="1.000000" stroke="none" 
	d="
M275.304504,243.056137 
	C275.300903,248.695740 275.253418,253.845718 275.305939,258.994659 
	C275.347931,263.107727 273.387817,265.190125 269.286133,265.201416 
	C261.811066,265.221954 254.335938,265.217804 246.860840,265.210052 
	C242.998886,265.206024 240.951584,263.182465 240.907730,259.392029 
	C240.819336,251.752304 240.835770,244.110489 240.896881,236.470245 
	C240.928070,232.573486 243.115448,230.785416 246.926910,230.790024 
	C253.571503,230.798050 260.216156,230.774261 266.860718,230.790161 
	C274.192932,230.807709 275.249664,231.858200 275.297852,239.077621 
	C275.305603,240.240402 275.302124,241.403259 275.304504,243.056137 
M262.201874,256.764648 
	C265.659546,257.154449 266.938049,255.603699 266.867981,252.159500 
	C266.556915,236.869049 269.005188,239.540253 254.583069,239.133621 
	C250.423691,239.016342 249.148987,240.494812 249.163513,244.592926 
	C249.206665,256.765076 249.055939,256.765625 262.201874,256.764648 
z"/>
<path fill="#000000" opacity="1.000000" stroke="none" 
	d="
M252.078415,182.693817 
	C257.729340,182.696823 262.891632,182.658401 268.052856,182.714340 
	C273.933167,182.778046 275.218140,183.989578 275.276550,189.673065 
	C275.346710,196.499237 275.357391,203.327484 275.273163,210.153320 
	C275.208221,215.417816 273.740448,216.916031 268.349609,217.017426 
	C261.525116,217.145782 254.695435,217.124680 247.869919,217.029205 
	C242.506943,216.954208 240.972336,215.466934 240.876480,210.191956 
	C240.758514,203.700180 240.796219,197.204330 240.852539,190.710983 
	C240.912766,183.766876 242.011780,182.741516 249.091583,182.695450 
	C249.924118,182.690033 250.756729,182.694305 252.078415,182.693817 
M249.260849,205.073334 
	C249.215652,207.157776 249.879593,208.363739 252.279877,208.706192 
	C265.317200,210.566437 268.223328,207.781509 266.878601,194.675583 
	C266.628754,192.240601 265.668152,191.254745 263.238953,190.979446 
	C249.834549,189.460266 249.234161,189.940201 249.248413,203.177353 
	C249.248764,203.508591 249.249344,203.839813 249.260849,205.073334 
z"/>
<path fill="#000000" opacity="1.000000" stroke="none" 
	d="
M323.109009,240.196777 
	C323.109650,246.499283 323.201721,252.327194 323.083374,258.150848 
	C322.975311,263.468170 321.385895,265.104767 316.240936,265.185150 
	C309.251282,265.294373 302.258545,265.189789 295.267578,265.237030 
	C291.037292,265.265625 288.673767,263.509003 288.706299,259.019226 
	C288.759308,251.695435 288.764130,244.370514 288.698212,237.046890 
	C288.658051,232.584305 290.923553,230.742416 295.195801,230.777466 
	C301.520874,230.829376 307.846649,230.789459 314.172119,230.800278 
	C322.024780,230.813705 322.953522,231.746002 323.109009,240.196777 
M309.266174,239.171906 
	C306.433868,239.191803 303.600861,239.261627 300.769470,239.219925 
	C296.533936,239.157562 296.625763,242.389099 297.234985,244.796143 
	C298.244263,248.783630 293.587891,255.255341 300.479858,256.548279 
	C313.792847,259.045776 314.925690,257.663940 314.708038,244.368469 
	C314.705292,244.201904 314.691254,244.033386 314.709869,243.868896 
	C315.093872,240.477875 313.702850,238.801910 309.266174,239.171906 
z"/>
<path fill="#000000" opacity="1.000000" stroke="none" 
	d="
M323.107849,203.937805 
	C323.112732,217.062378 323.112732,217.065506 310.264709,217.063080 
	C305.111847,217.062103 299.958435,217.085281 294.806244,217.020493 
	C290.806244,216.970215 288.668396,215.055756 288.707214,210.857788 
	C288.774872,203.544556 288.767273,196.229843 288.704010,188.916489 
	C288.665894,184.508484 290.741669,182.601532 295.129272,182.678009 
	C302.274811,182.802582 309.425812,182.815796 316.571014,182.684875 
	C321.021057,182.603333 323.010956,184.770142 323.068390,188.988586 
	C323.134003,193.808289 323.098541,198.629379 323.107849,203.937805 
M311.947205,208.648621 
	C314.491211,208.524841 314.693237,206.743469 314.690765,204.796875 
	C314.686920,201.817520 314.533081,198.825638 314.752136,195.861923 
	C315.027344,192.139191 313.426483,190.890808 309.828766,190.978348 
	C294.955200,191.340195 297.394623,189.113586 297.060883,203.517776 
	C296.973755,207.278183 298.089630,209.090500 302.124084,208.739822 
	C305.081421,208.482742 308.078552,208.683487 311.947205,208.648621 
z"/>
<path fill="#000000" opacity="1.000000" stroke="none" 
	d="
M202.218002,217.094727 
	C194.391739,216.918289 193.205093,215.863159 193.123062,208.790298 
	C193.045883,202.138351 193.150421,195.483688 193.226761,188.830795 
	C193.275803,184.556854 195.315491,182.536880 199.774857,182.658325 
	C206.756989,182.848511 213.749619,182.807404 220.734604,182.684006 
	C225.282242,182.603668 227.510483,184.358521 227.379944,189.157455 
	C227.190048,196.139526 227.374863,203.130966 227.315872,210.117691 
	C227.267578,215.838470 226.090286,216.993011 220.155441,217.076263 
	C214.333878,217.157944 208.510315,217.095001 202.218002,217.094727 
M217.463242,191.140686 
	C213.480682,191.104813 209.496994,191.115417 205.515961,191.017365 
	C202.666687,190.947189 201.232620,191.998077 201.302368,195.083496 
	C201.678497,211.725403 198.807205,208.263351 214.295105,208.687027 
	C215.123581,208.709686 215.955124,208.668137 216.783737,208.626526 
	C218.092758,208.560837 219.204681,208.010986 219.079498,206.581604 
	C218.637527,201.533752 220.229599,196.366745 217.463242,191.140686 
z"/>
<path fill="#000000" opacity="1.000000" stroke="none" 
	d="
M227.339142,252.947296 
	C227.328690,265.231720 227.328690,265.232147 215.521393,265.222748 
	C210.197342,265.218506 204.872253,265.145325 199.549591,265.228546 
	C195.427948,265.292938 193.254044,263.342590 193.218781,259.282562 
	C193.152328,251.633240 193.187103,243.982101 193.273605,236.332779 
	C193.314484,232.718765 195.270111,230.821594 198.915634,230.814957 
	C206.568710,230.801041 214.222610,230.757248 221.874680,230.849045 
	C225.446899,230.891907 227.374420,232.731552 227.333435,236.485199 
	C227.275330,241.808502 227.331558,247.133072 227.339142,252.947296 
M201.336868,242.924698 
	C201.301544,257.792786 201.301529,257.792542 215.471176,256.784851 
	C215.801132,256.761383 216.132431,256.751770 216.463272,256.746552 
	C218.286423,256.717804 218.947968,255.794418 219.181198,253.976715 
	C220.917908,240.441467 219.219193,238.547791 205.659149,239.228867 
	C204.833939,239.270309 203.990707,239.257843 203.190903,239.431686 
	C201.835632,239.726257 201.439926,240.794220 201.336868,242.924698 
z"/>
</svg>