<svg version="1.1" id="Layer_1" xmlns="http://www.w3.org/2000/svg" xmlns:xlink="http://www.w3.org/1999/xlink" x="0px" y="0px"
	 width="100%" viewBox="0 0 464 464" enable-background="new 0 0 464 464" xml:space="preserve">
<path fill="#000000" opacity="1.000000" stroke="none" 
	d="
M290.273560,241.727020 
	C292.253906,249.971863 291.293243,257.973358 291.266968,265.919189 
	C291.251129,270.702301 291.896393,273.611816 297.684357,272.981506 
	C301.559753,272.559448 303.355560,274.908691 303.327209,278.845856 
	C303.249237,289.674103 303.243835,300.503662 303.317871,311.331909 
	C303.347412,315.649231 301.157532,317.568787 297.121490,317.156677 
	C292.371399,316.671692 291.181244,318.693054 291.287476,323.176758 
	C291.567596,334.998749 291.256134,346.834106 291.479950,358.658478 
	C291.570435,363.438751 289.663422,365.206512 285.012817,365.200592 
	C231.701630,365.132629 178.390198,365.207001 125.079124,365.099487 
	C114.580429,365.078308 107.853210,358.189606 107.833900,347.754822 
	C107.761131,308.437897 107.742424,269.120544 107.845802,229.803726 
	C107.876122,218.273804 115.671722,210.161377 127.005257,210.846512 
	C137.039017,211.453079 145.136658,208.537094 153.348145,202.896896 
	C176.410538,187.056061 199.965836,171.931641 223.373703,156.596375 
	C226.370346,154.633179 228.776169,152.335312 230.572403,149.190689 
	C233.875687,143.407761 237.847458,137.979721 240.833237,132.047745 
	C247.891525,118.024757 258.811890,113.103119 274.164673,115.749275 
	C286.769470,117.921799 299.563812,118.996643 312.275909,120.543640 
	C316.210480,121.022453 319.705627,121.404747 320.675568,115.789398 
	C321.424164,111.455330 325.137390,109.286903 329.431030,108.747887 
	C335.040619,108.043655 340.668518,107.415985 346.307434,107.033302 
	C352.625183,106.604568 357.202728,110.848122 358.069580,118.093872 
	C358.997070,125.846268 359.545837,133.643738 360.276306,141.419998 
	C361.457458,153.994202 362.535614,166.579651 363.885864,179.135773 
	C364.656738,186.304398 361.449066,191.308975 354.363525,192.440887 
	C348.951599,193.305450 343.463013,193.715210 337.998505,194.218369 
	C332.970245,194.681351 329.487366,191.993317 326.355286,187.757309 
	C318.243164,193.463638 308.803436,195.382782 299.142334,197.453674 
	C299.692657,200.978622 302.046539,203.230896 303.704376,205.755219 
	C306.160065,209.494339 305.574921,212.070526 301.809418,214.448563 
	C293.080780,219.961029 284.468597,225.657974 275.814636,231.288498 
	C273.993408,232.473434 272.315918,233.587570 272.227692,236.249512 
	C272.119110,239.527878 273.367432,240.624100 276.589813,240.659149 
	C281.039917,240.707581 285.572723,239.786209 290.273560,241.727020 
M120.033623,356.793701 
	C121.701607,357.766632 123.548386,357.717041 125.382370,357.717041 
	C176.711258,357.717651 228.040207,357.688660 279.368958,357.769897 
	C283.139587,357.775879 284.774872,356.738098 284.691559,352.680817 
	C284.482880,342.519562 284.472443,332.346588 284.729675,322.187073 
	C284.834900,318.031525 283.101379,317.086243 279.385559,317.163971 
	C270.890076,317.341705 262.387756,317.270905 253.889069,317.199341 
	C240.319122,317.085052 231.598267,308.354187 231.623581,295.011139 
	C231.649048,281.584930 240.262558,272.979218 253.905579,272.861786 
	C262.237549,272.790070 270.576996,272.664581 278.900665,272.939301 
	C283.163788,273.079987 285.048553,271.865509 284.715179,267.341858 
	C284.397614,263.032562 284.665222,258.681030 284.653168,254.348114 
	C284.633820,247.388977 284.626038,247.377380 277.828979,247.377228 
	C233.666138,247.376236 189.502914,247.477905 145.340729,247.308563 
	C135.469910,247.270721 125.428963,248.973526 115.672684,244.968887 
	C115.498360,246.088669 115.310799,246.732010 115.310570,247.375397 
	C115.298492,281.205750 115.313721,315.036072 115.286308,348.866425 
	C115.283623,352.175171 116.642693,354.621521 120.033623,356.793701 
M283.389191,161.921204 
	C287.141968,157.098389 291.171570,152.714401 297.936981,152.565521 
	C299.811768,152.524277 301.288757,153.185043 301.729919,155.086853 
	C302.230377,157.244461 301.096832,158.769669 299.067902,159.170975 
	C291.395203,160.688507 288.371887,167.209671 284.528625,172.708923 
	C282.600677,175.467575 292.146912,190.807053 295.511108,190.348358 
	C303.744995,189.225693 312.043396,188.055634 319.351624,183.603668 
	C323.191284,181.264664 325.322540,178.062683 324.821411,173.259384 
	C323.407166,159.703888 322.075470,146.138123 320.916504,132.558868 
	C320.642212,129.344879 319.214478,128.443222 316.242706,128.129150 
	C301.366669,126.556976 286.409912,125.390976 271.677460,122.915840 
	C255.932190,120.270554 250.834930,126.946892 244.113235,142.660690 
	C246.877396,140.896164 249.337250,139.513657 251.586761,137.847183 
	C255.222061,135.154129 257.921356,135.813110 260.219849,139.618362 
	C261.801453,142.236816 263.176575,145.080765 265.936676,147.320099 
	C267.745239,144.969650 269.228516,142.989410 270.769409,141.055054 
	C272.141327,139.332809 273.822906,138.248398 275.900177,139.809296 
	C277.892242,141.306168 277.562775,143.285797 276.411774,145.152603 
	C275.540161,146.566254 274.525238,147.894058 273.537628,149.233215 
	C268.893585,155.530563 264.208496,161.797852 259.593964,168.116684 
	C256.022888,173.006683 256.253204,178.196274 260.067078,180.972473 
	C264.223297,183.997910 268.563385,182.859512 272.331543,177.615082 
	C275.925720,172.612808 279.411346,167.532516 283.389191,161.921204 
M236.650482,175.195160 
	C214.435242,189.841736 192.231644,204.506027 169.990616,219.113358 
	C167.086670,221.020584 164.560913,222.698502 165.925354,226.985596 
	C166.675964,229.343948 165.554932,231.900742 164.529175,234.203735 
	C161.922424,240.056305 162.443161,240.616425 168.846634,240.557663 
	C183.130875,240.426590 197.417343,240.558701 211.702728,240.519089 
	C215.306625,240.509094 218.984222,241.226624 222.363495,239.007370 
	C235.850098,230.150497 249.398102,221.387115 262.914734,212.575912 
	C264.319244,211.660370 265.649872,210.781662 265.096283,208.614044 
	C264.045227,204.498535 265.422974,200.776794 267.225952,197.116333 
	C268.896271,193.725159 267.353119,189.855515 263.817719,189.527588 
	C257.010223,188.896194 253.041214,185.172714 250.350922,179.248062 
	C248.653885,175.510834 240.967712,173.117538 236.650482,175.195160 
M344.060425,186.543808 
	C346.369476,186.268936 348.677399,185.776749 350.987793,185.764923 
	C355.640137,185.741104 357.092651,183.351013 356.662567,179.056015 
	C354.661804,159.075241 352.684479,139.091934 350.786774,119.101189 
	C350.445831,115.509850 348.591461,114.082428 345.196747,114.353600 
	C341.723206,114.631081 338.263336,115.107132 334.786621,115.311279 
	C327.886902,115.716408 327.093872,116.505287 327.318634,123.361565 
	C327.356689,124.522636 327.456696,125.683128 327.566833,126.840187 
	C329.154388,143.515564 330.905823,160.177368 332.281982,176.870102 
	C333.100922,186.804184 333.080902,187.046249 344.060425,186.543808 
M255.700882,161.233765 
	C256.590668,160.029343 257.368469,158.719025 258.389679,157.638855 
	C262.770721,153.004700 258.338867,150.058807 256.167908,146.958771 
	C253.662415,143.381012 251.393326,146.768768 249.501541,148.007355 
	C214.284180,171.064606 179.133804,194.224167 143.970200,217.363480 
	C133.497696,224.254898 133.864761,224.040680 140.271088,234.893921 
	C143.561157,240.467789 147.520966,241.509384 153.617111,239.854126 
	C153.016037,237.068390 154.823975,235.214035 156.687012,233.234207 
	C159.073624,230.697998 159.497162,227.473785 157.990250,224.403183 
	C156.154236,220.661942 157.675400,218.649551 160.739883,216.641388 
	C186.210999,199.950439 211.641266,183.196838 237.026947,166.376236 
	C240.135452,164.316528 242.627716,163.895874 245.259155,167.039322 
	C246.388275,168.388123 247.994934,169.488632 250.022293,169.144974 
	C251.804321,166.670242 253.549011,164.247391 255.700882,161.233765 
M238.879166,298.589935 
	C240.997482,306.282440 245.292374,309.722321 253.186646,309.760223 
	C265.656372,309.820099 278.129272,309.611938 290.595306,309.830566 
	C294.848877,309.905182 296.091492,308.288513 295.945557,304.291626 
	C295.715179,297.981812 295.707489,291.650970 295.944885,285.341766 
	C296.093933,281.380341 294.573059,280.154572 290.711456,280.214020 
	C278.576752,280.401062 266.437378,280.274811 254.299881,280.294189 
	C243.224884,280.311829 237.721848,286.492950 238.879166,298.589935 
M277.322174,221.778320 
	C282.755371,218.237030 288.198883,214.711411 293.615051,211.144272 
	C295.111206,210.158875 297.178650,209.194626 295.709991,206.904831 
	C290.273376,198.428802 284.723663,190.025345 279.096466,181.410965 
	C275.038025,185.082108 271.961273,188.112793 276.170471,192.970276 
	C277.871002,194.932693 277.095093,196.984421 275.232178,198.664185 
	C271.823700,201.737503 271.321960,205.522446 272.999451,209.574799 
	C274.304840,212.728287 273.026031,214.594559 270.482666,216.207092 
	C266.410187,218.789108 262.392181,221.457291 258.356750,224.097549 
	C250.515274,229.227982 242.677643,234.364288 234.060043,240.007919 
	C242.773590,241.145065 249.772110,240.658691 256.301361,235.601151 
	C262.721802,230.627914 269.872772,226.597763 277.322174,221.778320 
M116.270775,224.028732 
	C114.562607,228.538513 114.588120,232.906357 118.077492,236.552246 
	C122.610062,241.288132 128.366989,240.822891 135.216537,240.114258 
	C132.780426,236.278778 130.730469,233.141144 128.777939,229.944016 
	C127.574150,227.972885 126.252533,226.009186 125.462700,223.865692 
	C124.412643,221.015991 128.075226,220.210953 128.801590,217.895859 
	C121.073746,218.153702 120.530502,218.401428 116.270775,224.028732 
z"/>
<path fill="#000000" opacity="1.000000" stroke="none" 
	d="
M208.096893,205.770447 
	C216.302338,201.853439 223.820587,203.975830 227.145081,210.844177 
	C230.274780,217.310104 227.607697,225.159637 221.221313,228.278503 
	C215.225952,231.206436 208.138763,229.276123 204.477722,223.718109 
	C200.721863,218.016159 201.992569,211.158493 208.096893,205.770447 
M210.577728,219.897125 
	C213.159180,222.794937 216.084930,223.716034 219.230011,220.931351 
	C221.391785,219.017319 222.358719,216.536667 220.583160,213.822311 
	C218.878098,211.215668 216.373871,209.703430 213.368912,211.157242 
	C210.058014,212.759079 208.285965,215.425705 210.577728,219.897125 
z"/>
<path fill="#000000" opacity="1.000000" stroke="none" 
	d="
M186.201508,231.151794 
	C188.471313,229.753052 190.381149,228.443695 192.425430,227.396881 
	C194.179199,226.498795 195.682373,227.306900 196.670700,228.827789 
	C197.599823,230.257629 197.298889,231.760178 196.060394,232.855713 
	C193.086975,235.485947 189.756393,237.629379 186.202866,239.378403 
	C184.538681,240.197510 182.905212,239.801270 181.926254,238.117340 
	C180.983841,236.496277 181.246689,234.905136 182.704758,233.675583 
	C183.708374,232.829239 184.830643,232.123611 186.201508,231.151794 
z"/>
<path fill="#000000" opacity="1.000000" stroke="none" 
	d="
M245.600250,200.558441 
	C243.053635,202.206345 240.872620,203.749527 238.566025,205.074005 
	C236.784958,206.096725 234.989319,205.975739 233.777557,204.057831 
	C232.566147,202.140457 233.246201,200.500137 234.903076,199.278198 
	C237.179413,197.599380 239.510605,195.985382 241.899155,194.471176 
	C244.029587,193.120621 246.500076,191.496948 248.458969,194.380692 
	C250.436264,197.291565 248.001892,198.880524 245.600250,200.558441 
z"/>
<path fill="#000000" opacity="1.000000" stroke="none" 
	d="
M266.084351,298.757141 
	C263.481689,303.734650 259.549469,305.360413 254.622299,304.228455 
	C250.895859,303.372375 248.546967,300.712067 247.867874,296.979187 
	C247.124313,292.891815 248.285110,289.267487 251.993927,287.027222 
	C255.582077,284.859833 259.425507,284.889618 262.796265,287.411591 
	C266.448730,290.144287 267.975708,293.833160 266.084351,298.757141 
M255.049194,295.811951 
	C256.277222,297.739685 257.697327,297.505188 258.973907,295.978394 
	C259.915009,294.852905 259.358032,293.717621 258.210449,293.151642 
	C256.075623,292.098755 255.280655,293.437164 255.049194,295.811951 
z"/>
</svg>